PathFileType	4	(X/Y/Z)	/Users/itak/Documents/Research/Walk-IL/dataset/trc/00233_00009.trc
DataRate	CameraRate	NumFrames	NumMarkers	Units	OrigDataRate	OrigDataStartFrame	OrigNumFrames
100.000000	100.000000	4	53	mm	100.000000	0	857
Frame#	Time	RPSI			LPSI			L3			STRN			T10			C7			CLAV			RBAK			LBAK			LSHO			LUPA			LAEL			LAOL			LWTS			LWPS			LFRA			LIFD			LHPS			LHTS			RSHO			RUPA			RAEL			RAOL			RWTS			RWPS			RFRA			RIFD			RHTS			RHPS			RBHD			LFHD			RFHD			LBHD			LHIP			RHIP			RASI			LASI			LKNE			LTHI			LANK			LTIP			LTOE			LMT1			LMT5			LHEE			RKNE			RTHI			RANK			RTIP			RTOE			RMT1			RMT5			RHEE			
		X1	Y1	Z1	X2	Y2	Z2	X3	Y3	Z3	X4	Y4	Z4	X5	Y5	Z5	X6	Y6	Z6	X7	Y7	Z7	X8	Y8	Z8	X9	Y9	Z9	X10	Y10	Z10	X11	Y11	Z11	X12	Y12	Z12	X13	Y13	Z13	X14	Y14	Z14	X15	Y15	Z15	X16	Y16	Z16	X17	Y17	Z17	X18	Y18	Z18	X19	Y19	Z19	X20	Y20	Z20	X21	Y21	Z21	X22	Y22	Z22	X23	Y23	Z23	X24	Y24	Z24	X25	Y25	Z25	X26	Y26	Z26	X27	Y27	Z27	X28	Y28	Z28	X29	Y29	Z29	X30	Y30	Z30	X31	Y31	Z31	X32	Y32	Z32	X33	Y33	Z33	X34	Y34	Z34	X35	Y35	Z35	X36	Y36	Z36	X37	Y37	Z37	X38	Y38	Z38	X39	Y39	Z39	X40	Y40	Z40	X41	Y41	Z41	X42	Y42	Z42	X43	Y43	Z43	X44	Y44	Z44	X45	Y45	Z45	X46	Y46	Z46	X47	Y47	Z47	X48	Y48	Z48	X49	Y49	Z49	X50	Y50	Z50	X51	Y51	Z51	X52	Y52	Z52	X53	Y53	Z53	

1	0	20.017578125	1050.797729492188	635.58935546875	41.31550216674805	1053.345336914062	517.2993774414062	27.19521903991699	1127.566650390625	558.8885498046875	268.045166015625	1317.319091796875	594.4166259765625	18.96175956726074	1255.166748046875	564.9733276367188	76.95729827880859	1517.640380859375	568.6219482421875	239.9618377685547	1434.041625976562	593.17041015625	-6.767648696899414	1377.389770507812	630.0101318359375	72.19143676757812	1478.790771484375	456.6982727050781	168.1081390380859	1479.36572265625	413.2148132324219	148.1539611816406	1361.13232421875	331.2149047851562	167.5758209228516	1151.529663085938	302.8673095703125	89.64756774902344	1133.180786132812	341.0005493164062	262.2911376953125	924.054931640625	374.8831176757812	248.995849609375	905.2461547851562	293.9131164550781	195.87890625	1045.46923828125	293.2994384765625	276.2391357421875	729.94775390625	371.3962707519531	268.7213745117188	817.727783203125	302.0649719238281	303.2261352539062	824.4450073242188	360.6548156738281	110.7801055908203	1475.150512695312	745.0393676757812	83.88843536376953	1409.01123046875	808.265380859375	64.85060119628906	1129.158203125	849.9488525390625	41.56863403320312	1119.921875	757.6904907226562	208.6056518554688	916.8760375976562	828.1527709960938	149.7693481445312	902.8768920898438	886.3929443359375	91.12661743164062	1061.6103515625	866.885986328125	226.6671447753906	724.8895263671875	827.8408813476562	248.4206848144531	797.5542602539062	851.3511352539062	191.1226806640625	796.8768920898438	894.2999877929688	98.36601257324219	1670.132568359375	608.5858154296875	315.6322937011719	1727.119018554688	573.7623901367188	286.9092407226562	1726.840209960938	669.7064819335938	179.1719360351562	1679.702758789062	493.9418029785156	159.8015441894531	987.30908203125	395.2388916015625	98.11037445068359	1009.423095703125	757.058837890625	199.2006225585938	1050.432495117188	736.1769409179688	254.5605773925781	1029.261962890625	460.5557556152344	173.1060485839844	502.8367309570312	454.1819763183594	181.2326202392578	645.9632568359375	419.5749816894531	83.87471008300781	34.92419815063477	464.3268432617188	122.0585174560547	281.0073547363281	447.2676696777344	285.6480407714844	41.05879592895508	559.1582641601562	209.3510284423828	35.32475662231445	586.9739379882812	214.3327331542969	36.14741516113281	471.6802062988281	13.57866954803467	39.10276412963867	504.1036376953125	126.3418807983398	516.0186767578125	723.3013305664062	149.8900146484375	783.5905151367188	772.4019775390625	63.73264694213867	32.90993881225586	687.37841796875	132.8637390136719	401.0283508300781	706.0630493164062	279.203369140625	42.85514831542969	673.9420776367188	229.2865753173828	40.23442459106445	623.6160888671875	167.5718994140625	34.82061386108398	729.42724609375	9.278402328491211	31.62545013427734	621.122314453125	
2	0.01	20.02980613708496	1050.799926757812	635.581298828125	41.33688735961914	1053.34912109375	517.290771484375	27.2222728729248	1127.567504882812	558.8908081054688	268.0782470703125	1317.309448242188	594.4151000976562	18.99052810668945	1255.163696289062	564.982177734375	77.00131225585938	1517.639038085938	568.6251220703125	239.9887847900391	1434.031127929688	593.1651000976562	-6.723879337310791	1377.396606445312	630.0054931640625	72.23479461669922	1478.7861328125	456.7145385742188	168.1443481445312	1479.343017578125	413.2137145996094	148.1455230712891	1361.093383789062	331.2400207519531	167.5554046630859	1151.4853515625	302.9193420410156	89.66135406494141	1133.141967773438	341.0725402832031	262.2999267578125	924.026611328125	374.9351501464844	248.9683837890625	905.19140625	293.9789123535156	195.8578796386719	1045.428344726562	293.3411254882812	276.2629699707031	729.9235229492188	371.4547119140625	268.7399291992188	817.6817626953125	302.1506652832031	303.2612609863281	824.4152221679688	360.7133178710938	110.8366394042969	1475.149169921875	745.0455932617188	83.96237182617188	1409.005126953125	808.2733764648438	64.92088317871094	1129.148681640625	849.931884765625	41.60449981689453	1119.932983398438	757.6739501953125	208.625732421875	916.8435668945312	828.1012573242188	149.8060913085938	902.8553466796875	886.3533935546875	91.14595794677734	1061.596557617188	866.8617553710938	226.6308288574219	724.857421875	827.7689208984375	248.4134521484375	797.5130615234375	851.2891845703125	191.1189270019531	796.8526611328125	894.2371215820312	98.24639892578125	1669.978881835938	607.9766845703125	315.5177307128906	1727.303344726562	574.230712890625	286.2398986816406	1727.104248046875	669.9896240234375	179.5434265136719	1679.59619140625	493.7350158691406	159.8143463134766	987.3018188476562	395.2406616210938	98.11587524414062	1009.422180175781	757.0591430664062	199.2287750244141	1050.421875	736.1817626953125	254.5695190429688	1029.253295898438	460.5555419921875	173.126220703125	502.8357238769531	454.1886596679688	181.2573394775391	645.9553833007812	419.5613403320312	83.87643432617188	34.92385482788086	464.3280639648438	122.0683212280273	281.0093688964844	447.2692260742188	285.6524963378906	41.06903076171875	559.1566162109375	209.3461303710938	35.32181167602539	586.9686889648438	214.3373565673828	36.1449089050293	471.6794128417969	13.57962894439697	39.10055541992188	504.1027526855469	126.3512725830078	516.0205688476562	723.30029296875	149.8761138916016	783.5860595703125	772.4033813476562	63.73345184326172	32.9041862487793	687.3796997070312	132.8631591796875	401.0201416015625	706.0628662109375	279.2041625976562	42.85614013671875	673.9415283203125	229.2933959960938	40.23624038696289	623.62109375	167.5750427246094	34.821533203125	729.4217529296875	9.286270141601562	31.62577056884766	621.122802734375	
3	0.02	20.04659461975098	1050.804809570312	635.572998046875	41.36518478393555	1053.355834960938	517.282958984375	27.25729370117188	1127.570556640625	558.8927001953125	268.1239318847656	1317.300170898438	594.4130859375	19.02835083007812	1255.16162109375	564.9925537109375	77.05929565429688	1517.63623046875	568.6266479492188	240.0238647460938	1434.018798828125	593.1583862304688	-6.668565273284912	1377.408081054688	630.0007934570312	72.29167938232422	1478.780639648438	456.7301025390625	168.1941680908203	1479.314086914062	413.2100219726562	148.1406860351562	1361.04541015625	331.26806640625	167.5377044677734	1151.432250976562	302.9818725585938	89.67904663085938	1133.092895507812	341.1603393554688	262.3114624023438	923.9898681640625	374.9998779296875	248.9327392578125	905.1201782226562	294.0602416992188	195.8375244140625	1045.3740234375	293.393798828125	276.2929077148438	729.8934936523438	371.5308837890625	268.7665710449219	817.6255493164062	302.2571716308594	303.3008117675781	824.3765258789062	360.7857360839844	110.906852722168	1475.150634765625	745.051513671875	84.05204772949219	1409.001098632812	808.2813720703125	65.01686096191406	1129.142456054688	849.9112548828125	41.6373291015625	1119.945678710938	757.65576171875	208.6555023193359	916.8060913085938	828.0361328125	149.8541259765625	902.83154296875	886.3046264648438	91.17387390136719	1061.583740234375	866.832275390625	226.5800933837891	724.8170776367188	827.6777954101562	248.4083862304688	797.462158203125	851.208740234375	191.1199340820312	796.8258666992188	894.1588745117188	98.08116912841797	1669.790161132812	607.2263793945312	315.3584289550781	1727.541259765625	574.809814453125	285.4151916503906	1727.42724609375	670.3450317382812	179.9964141845703	1679.47021484375	493.4876098632812	159.8333587646484	987.2944946289062	395.2426147460938	98.12725830078125	1009.421813964844	757.0599365234375	199.2671051025391	1050.408935546875	736.1859741210938	254.5839538574219	1029.242919921875	460.5553283691406	173.1466369628906	502.8353576660156	454.1952514648438	181.2821197509766	645.9466552734375	419.5460510253906	83.87833404541016	34.92345809936523	464.3295288085938	122.0778503417969	281.0113830566406	447.2702331542969	285.6555480957031	41.07833480834961	559.155517578125	209.341552734375	35.3197021484375	586.9630737304688	214.34228515625	36.14252090454102	471.6778869628906	13.58113288879395	39.09893798828125	504.1016235351562	126.3599624633789	516.0222778320312	723.2982177734375	149.8618621826172	783.5800170898438	772.4043579101562	63.73254013061523	32.89891815185547	687.3805541992188	132.8623352050781	401.012451171875	706.0620727539062	279.2053527832031	42.85857391357422	673.9404907226562	229.3001403808594	40.23828125	623.6259155273438	167.5768890380859	34.82321548461914	729.4153442382812	9.29356575012207	31.62690162658691	621.123046875	
4	0.03	20.06775665283203	1050.81298828125	635.5657348632812	41.40030288696289	1053.366088867188	517.2774047851562	27.29947662353516	1127.576538085938	558.8942260742188	268.1819763183594	1317.292846679688	594.4107666015625	19.0753231048584	1255.160522460938	565.0037231445312	77.12945556640625	1517.631713867188	568.6254272460938	240.0661773681641	1434.005615234375	593.150390625	-6.603477001190186	1377.42431640625	629.9962158203125	72.36089324951172	1478.774658203125	456.7420959472656	168.2574157714844	1479.279663085938	413.2029113769531	148.1432189941406	1360.991088867188	331.2963256835938	167.5281219482422	1151.37353515625	303.05126953125	89.70104217529297	1133.036010742188	341.2582702636719	262.3247680664062	923.9453125	375.074951171875	248.8903350830078	905.0347900390625	294.1530151367188	195.8229675292969	1045.307495117188	293.4559631347656	276.3255004882812	729.8584594726562	371.6236877441406	268.8015747070312	817.562255859375	302.3795776367188	303.3396911621094	824.3284912109375	360.8692016601562	110.9876480102539	1475.156005859375	745.055908203125	84.15227508544922	1409.000244140625	808.2879638671875	65.13748931884766	1129.141723632812	849.8882446289062	41.6661376953125	1119.960083007812	757.6370849609375	208.6959991455078	916.7669067382812	827.9601440429688	149.9127807617188	902.8080444335938	886.2490234375	91.21036529541016	1061.57421875	866.7990112304688	226.5170745849609	724.7704467773438	827.5713500976562	248.4103240966797	797.4041748046875	851.112548828125	191.1285095214844	796.7989501953125	894.0691528320312	97.87247467041016	1669.576293945312	606.3746948242188	315.1541137695312	1727.8251953125	575.4700317382812	284.4781188964844	1727.791015625	670.757080078125	180.5047302246094	1679.333618164062	493.2161865234375	159.85791015625	987.2881469726562	395.2445068359375	98.1458740234375	1009.422546386719	757.0614013671875	199.3150177001953	1050.394409179688	736.1890869140625	254.6046142578125	1029.231201171875	460.5549926757812	173.1639404296875	502.83544921875	454.2004089355469	181.3034820556641	645.9380493164062	419.5306701660156	83.88008880615234	34.92306137084961	464.3311157226562	122.0854568481445	281.0138244628906	447.2701416015625	285.6565856933594	41.08536911010742	559.155029296875	209.3378448486328	35.3184814453125	586.9580078125	214.3467254638672	36.14066696166992	471.6755981445312	13.58291625976562	39.09815216064453	504.1004333496094	126.3663558959961	516.0232543945312	723.2947387695312	149.8494262695312	783.5728149414062	772.4043579101562	63.73008346557617	32.89471054077148	687.3810424804688	132.8611907958984	401.0061950683594	706.060302734375	279.2069702148438	42.86241912841797	673.9391479492188	229.3059997558594	40.24019241333008	623.630126953125	167.5777893066406	34.82573699951172	729.408935546875	9.29920482635498	31.62878799438477	621.1227416992188	
